:SAMPLES-PER-SECOND 30
:FULLY-SPECIFIED
:DEGREES
483
root  -4.52807 22.6031 -12.3974 -160.828 74.7946 -175.065
RightUpLeg  -51.717 -18.0966 -24.2641
RightLeg  80.1138 0.837578 3.08577
RightFoot  -19.1461 -0.153426 -0.532163
RightToes  -61.6066 -0.409767 -0.402143
Spine  16.5261 -3.03724 -4.48959
Spine1  32.4079 -3.85766 -9.64138
HEad  -5.29422 30.2808 -20.5724
LeftShoulder1  0 -2.42657e-020 -4.95415e-022
LeftArm  1.53566 3.53002 -88.1586
LeftForeArm  17.3282 -69.304 -27.9593
LeftHand  -0.138145 1.00452 -15.9214
RightShoulder  0 2.42657e-020 1.07489e-018
RightArm  26.6431 -6.39132 51.2306
RightForeArm  -156.449 76.6301 131.837
RightHand  -7.82229 11.1628 -69.6154
LeftUpLeg  -65.8732 -1.94282 40.3199
LeftLeg  57.4054 -18.6568 -23.559
LeftFoot  -5.66264 0.116457 2.3544
LeftToes  -68.2227 2.34596e-006 -6.06653e-008
484
root  -4.5483 22.8911 -12.0503 -158.265 70.7174 -174.899
RightUpLeg  -51.8709 -21.1636 -22.0241
RightLeg  79.7376 0.515596 1.70784
RightFoot  -19.6454 -0.0880329 -0.130908
RightToes  -59.508 -0.389908 -0.401546
Spine  15.8814 -2.13166 -4.74815
Spine1  31.1386 -2.25571 -9.47833
HEad  -5.00334 27.0193 -18.4644
LeftShoulder1  0 -2.42657e-020 -4.95415e-022
LeftArm  3.222 3.48359 -87.7967
LeftForeArm  19.8133 -70.1819 -29.4516
LeftHand  -0.218996 1.78979 -14.2659
RightShoulder  0 2.42657e-020 1.07489e-018
RightArm  26.4588 -11.5194 53.0547
RightForeArm  -147.278 75.077 138.365
RightHand  -7.72097 10.6836 -71.2984
LeftUpLeg  -68.1783 -2.18015 41.3072
LeftLeg  53.3861 -21.037 -22.9525
LeftFoot  -4.01588 0.055013 1.56902
LeftToes  -68.1047 2.34596e-006 -6.06653e-008
485
root  -4.52423 23.1352 -11.6921 -155.216 67.5051 -173.639
RightUpLeg  -51.8792 -23.1226 -19.5478
RightLeg  78.9448 0.277434 0.712855
RightFoot  -20.5121 -0.0334757 0.192544
RightToes  -58.187 -0.377511 -0.401229
Spine  15.5103 -1.0605 -4.40398
Spine1  30.2823 -0.449102 -8.15867
HEad  -4.95019 22.7372 -16.3853
LeftShoulder1  0 -2.42657e-020 -4.95415e-022
LeftArm  2.97366 3.49777 -88.8706
LeftForeArm  24.8621 -71.3757 -31.7455
LeftHand  -0.172773 1.33675 -15.0212
RightShoulder  0 2.42657e-020 1.07489e-018
RightArm  27.0035 -13.0967 54.0374
RightForeArm  -141.326 73.5502 143.139
RightHand  -7.5081 10.2318 -72.1396
LeftUpLeg  -69.862 -1.71967 42.2594
LeftLeg  50.4178 -23.2006 -22.7195
LeftFoot  -2.39183 0.0146727 0.702844
LeftToes  -67.8217 2.34596e-006 -6.06653e-008
486
root  -4.44432 23.2887 -11.5222 -154.423 64.9621 -173.571
RightUpLeg  -51.0111 -25.0261 -18.2923
RightLeg  78.3427 0.191176 0.373228
RightFoot  -21.4039 0.00254577 0.391032
RightToes  -57.2599 -0.368862 -0.401178
Spine  15.4649 -0.466329 -3.76571
Spine1  29.9503 0.587202 -6.78582
HEad  -5.9835 19.7689 -13.9793
LeftShoulder1  0 -2.42657e-020 -4.95415e-022
LeftArm  0.765325 3.62344 -90.6963
LeftForeArm  28.4183 -73.2783 -36.1935
LeftHand  0.113444 -1.16436 -11.5679
RightShoulder  0 2.42657e-020 1.07489e-018
RightArm  27.3185 -9.33587 54.8796
RightForeArm  -141.838 74.013 141.834
RightHand  -7.39356 10.0565 -72.2476
LeftUpLeg  -70.9911 -1.14913 41.7999
LeftLeg  49.0405 -25.1975 -23.3271
LeftFoot  -1.52297 0.00248494 0.186951
LeftToes  -67.4161 2.34596e-006 -6.06653e-008
487
root  -4.34175 23.3389 -11.5442 -154.983 62.543 -174.094
RightUpLeg  -48.875 -27.0956 -18.2289
RightLeg  77.4796 0.194756 0.37005
RightFoot  -22.226 0.0345023 0.553215
RightToes  -57.7284 -0.373227 -0.40138
Spine  15.4157 0.0459467 -2.69849
Spine1  29.4779 1.46122 -4.76498
HEad  -6.23338 16.8065 -10.6971
LeftShoulder1  0 -2.42657e-020 -4.95415e-022
LeftArm  -2.95111 2.83886 -93.6566
LeftForeArm  31.0385 -74.0429 -38.3626
LeftHand  0.096045 -1.06427 -10.7529
RightShoulder  0 2.42657e-020 1.07489e-018
RightArm  24.9603 -3.69529 56.6903
RightForeArm  -150.071 76.9368 130.429
RightHand  -7.36965 9.79931 -73.4986
LeftUpLeg  -72.429 0.0815183 39.5703
LeftLeg  49.4158 -26.0556 -24.2644
LeftFoot  -1.20381 -0.000618413 -0.0588739
LeftToes  -67.0042 2.34596e-006 -6.06653e-008
488
root  -4.07635 23.4047 -11.7894 -157.459 60.4243 -175.417
RightUpLeg  -44.6494 -29.5363 -19.7923
RightLeg  76.1193 0.437018 1.11263
RightFoot  -22.648 0.0235639 0.495233
RightToes  -58.8997 -0.384188 -0.401819
Spine  15.6791 0.520932 -1.53106
Spine1  29.573 2.33718 -2.70036
HEad  -6.52529 14.2974 -7.38165
LeftShoulder1  0 -2.42657e-020 -4.95415e-022
LeftArm  -6.93488 1.27817 -96.3793
LeftForeArm  31.5984 -74.8766 -41.0465
LeftHand  0.0806549 -1.1213 -8.65161
RightShoulder  0 2.42657e-020 1.07489e-018
RightArm  23.8536 5.75058 56.8489
RightForeArm  -174.934 79.6376 105.381
RightHand  -7.35383 9.89224 -72.8586
LeftUpLeg  -73.2002 1.82033 35.4601
LeftLeg  50.3908 -23.5254 -22.9691
LeftFoot  -0.866995 -0.00264025 -0.348964
LeftToes  -63.6848 2.34596e-006 -6.06653e-008
489
root  -3.59481 23.5937 -12.2074 -159.275 60.8026 -175.826
RightUpLeg  -40.9854 -29.2324 -21.4694
RightLeg  74.2746 0.641245 1.58813
RightFoot  -22.0951 0.0250249 0.505739
RightToes  -60.2749 -0.397143 -0.402482
Spine  15.4527 1.79786 -1.11542
Spine1  28.7944 4.74644 -1.63705
HEad  -6.93513 11.5631 -5.15569
LeftShoulder1  0 -2.42657e-020 -4.95415e-022
LeftArm  -9.85038 -0.21115 -96.2169
LeftForeArm  35.378 -76.1569 -46.0909
LeftHand  0.0577799 -0.934875 -7.49882
RightShoulder  0 2.42657e-020 1.07489e-018
RightArm  23.3324 13.8332 58.6226
RightForeArm  144.778 79.1175 66.2786
RightHand  -7.09285 9.46303 -73.3183
LeftUpLeg  -72.0834 5.96252 30.8674
LeftLeg  51.1984 -17.9549 -18.6109
LeftFoot  0.616602 0.00575315 -1.06916
LeftToes  -57.385 2.34596e-006 -6.06653e-008
